<svg xmlns="http://www.w3.org/2000/svg" xmlns:xlink="http://www.w3.org/1999/xlink" width="16" height="16" preserveAspectRatio="xMidYMid meet" viewBox="0 0 16 16" style="-ms-transform: rotate(360deg); -webkit-transform: rotate(360deg); transform: rotate(360deg);"><g fill="#626262"><path fill-rule="evenodd" d="M7.646 2.646a.5.5 0 0 1 .708 0l6 6a.5.5 0 0 1-.708.708L8 3.707L2.354 9.354a.5.5 0 1 1-.708-.708l6-6z"/><path fill-rule="evenodd" d="M7.646 6.646a.5.5 0 0 1 .708 0l6 6a.5.5 0 0 1-.708.708L8 7.707l-5.646 5.647a.5.5 0 0 1-.708-.708l6-6z"/></g><rect x="0" y="0" width="16" height="16" fill="rgba(0, 0, 0, 0)" /></svg>