<svg width="24" height="24" viewBox="0 0 24 24" fill="none" xmlns="http://www.w3.org/2000/svg">
<path d="M16.5 11.625V12.9375C16.5 13.2469 16.2469 13.5 15.9375 13.5H8.0625C7.75313 13.5 7.5 13.2469 7.5 12.9375V11.625C7.5 11.3156 7.75313 11.0625 8.0625 11.0625H15.9375C16.2469 11.0625 16.5 11.3156 16.5 11.625ZM15.9375 15H8.0625C7.75313 15 7.5 15.2531 7.5 15.5625V16.875C7.5 17.1844 7.75313 17.4375 8.0625 17.4375H15.9375C16.2469 17.4375 16.5 17.1844 16.5 16.875V15.5625C16.5 15.2531 16.2469 15 15.9375 15ZM21 6.18281V21.75C21 22.9922 19.9922 24 18.75 24H5.25C4.00781 24 3 22.9922 3 21.75V2.25C3 1.00781 4.00781 0 5.25 0H14.8172C15.4125 0 15.9844 0.239063 16.4062 0.660938L20.3391 4.59375C20.7609 5.01094 21 5.5875 21 6.18281ZM15 2.43281V6H18.5672L15 2.43281ZM18.75 21.75V8.25H13.875C13.2516 8.25 12.75 7.74844 12.75 7.125V2.25H5.25V21.75H18.75Z" fill="#55576B"/>
</svg>
