<svg width="24" height="24" viewBox="0 0 24 24" fill="none" xmlns="http://www.w3.org/2000/svg">
<path d="M22.004 8.47919L15.9165 7.59169L13.1957 2.07502C12.7082 1.09169 11.2957 1.07919 10.804 2.07502L8.08319 7.59169L1.99569 8.47919C0.904024 8.63752 0.466524 9.98335 1.25819 10.7542L5.66236 15.0459L4.62069 21.1084C4.43319 22.2042 5.58736 23.025 6.55402 22.5125L11.9999 19.65L17.4457 22.5125C18.4124 23.0209 19.5665 22.2042 19.379 21.1084L18.3374 15.0459L22.7415 10.7542C23.5332 9.98335 23.0957 8.63752 22.004 8.47919ZM16.1915 14.3459L17.179 20.1125L11.9999 17.3917L6.82069 20.1125L7.80819 14.3459L3.61652 10.2625L9.40819 9.42085L11.9999 4.17085L14.5915 9.42085L20.3832 10.2625L16.1915 14.3459Z" fill="#55576B"/>
</svg>
