<svg width="24" height="24" viewBox="0 0 24 24" fill="none" xmlns="http://www.w3.org/2000/svg">
<path d="M12 3.75C9.51844 3.75 7.5 5.76844 7.5 8.25C7.5 8.66438 7.83563 9 8.25 9C8.66437 9 9 8.66438 9 8.25C9 6.59531 10.3463 5.25 12 5.25C12.4144 5.25 12.75 4.91437 12.75 4.5C12.75 4.08563 12.4144 3.75 12 3.75ZM8.25281 21.5236C8.25281 21.6713 8.29641 21.8152 8.37844 21.938L9.52734 23.6648C9.66656 23.8739 9.90094 23.9995 10.1517 23.9995H13.8478C14.0991 23.9995 14.3334 23.8739 14.4722 23.6648L15.6211 21.938C15.7027 21.8152 15.7462 21.6708 15.7467 21.5236L15.7491 19.4995H8.25094L8.25281 21.5236ZM12 0C7.20563 0 3.75 3.88922 3.75 8.25C3.75 10.3298 4.52109 12.2273 5.79188 13.6772C6.57188 14.5673 7.79531 16.4334 8.24906 17.9972V18H10.4991V17.9944C10.4986 17.7708 10.4653 17.5486 10.3983 17.3348C10.1363 16.5 9.32859 14.2988 7.48406 12.1941C6.52125 11.0958 6.00656 9.70266 6.00234 8.25C5.99297 4.79813 8.79938 2.25 12 2.25C15.3084 2.25 18 4.94156 18 8.25C18 9.70172 17.4731 11.1023 16.5164 12.1941C14.6831 14.2852 13.8717 16.4817 13.6055 17.325C13.5368 17.5418 13.5017 17.7679 13.5014 17.9953V18H15.7514V17.9977C16.2052 16.4334 17.4286 14.5673 18.2086 13.6777C19.4789 12.2273 20.25 10.3298 20.25 8.25C20.25 3.69375 16.5562 0 12 0Z" fill="#55576B"/>
</svg>
